<?xml version="1.0"?>
<!DOCTYPE svg PUBLIC "-//W3C//DTD SVG 1.1//EN" "http://www.w3.org/Graphics/SVG/1.1/DTD/svg11.dtd">
<svg width="65.58610199999998mm" height="17.15830215899382mm" viewBox="0 0 65.58610199999998 17.15830215899382" xmlns="http://www.w3.org/2000/svg" version="1.1">
<g id="Line203" transform="translate(-188.710975,396.312277) scale(1,-1)">
<path id="Line203_nwe0000"  d="M 248.18650393809668 393.29491424884645 L 203.78735260758714 394.0535098576192 " stroke="#000000" stroke-width="0.7 px" style="stroke-width:0.7;stroke-miterlimit:4;stroke-dasharray:none;stroke-linecap:square;fill:none;fill-opacity:1;fill-rule: evenodd"/>
<title>b'Line203'</title>
</g>
<g id="Circle158" transform="translate(-188.710975,396.312277) scale(1,-1)">
<circle cx="197.29147626269256" cy="387.73312600216656" r="3.3" stroke="#000000" stroke-width="0.7 px" style="stroke-width:0.7;stroke-miterlimit:4;stroke-dasharray:none;stroke-linecap:square;fill:#000000"/>
<title>b'Circle158'</title>
</g>
<g id="Line200" transform="translate(-188.710975,396.312277) scale(1,-1)">
<path id="Line200_nwe0000"  d="M 210.82967626269334 386.5901260021665 L 205.495676262693 386.5901260021665 " stroke="#000000" stroke-width="0.7 px" style="stroke-width:0.7;stroke-miterlimit:4;stroke-dasharray:none;stroke-linecap:square;fill:none;fill-opacity:1;fill-rule: evenodd"/>
<title>b'Line200'</title>
</g>
<g id="Arc132" transform="translate(-188.710975,396.312277) scale(1,-1)">
<path id="Arc132_nwe0000"  d="M 200.9605626106959 394.7717133335062 A 7.9375 7.9375 0 1 1 200.961 380.695" stroke="#000000" stroke-width="0.7 px" style="stroke-width:0.7;stroke-miterlimit:4;stroke-dasharray:none;stroke-linecap:square;fill:none;fill-opacity:1;fill-rule: evenodd"/>
<title>b'Arc132'</title>
</g>
<g id="Arc130" transform="translate(-188.710975,396.312277) scale(1,-1)">
<path id="Arc130_nwe0000"  d="M 203.78735260758702 381.4127421467138 A 6.35 6.35 0 0 1 200.961 380.695" stroke="#000000" stroke-width="0.7 px" style="stroke-width:0.7;stroke-miterlimit:4;stroke-dasharray:none;stroke-linecap:square;fill:none;fill-opacity:1;fill-rule: evenodd"/>
<title>b'Arc130'</title>
</g>
<g id="Line202" transform="translate(-188.710975,396.312277) scale(1,-1)">
<path id="Line202_nwe0000"  d="M 203.78735260758714 381.4127421467139 L 248.18650393809668 382.17133775548666 " stroke="#000000" stroke-width="0.7 px" style="stroke-width:0.7;stroke-miterlimit:4;stroke-dasharray:none;stroke-linecap:square;fill:none;fill-opacity:1;fill-rule: evenodd"/>
<title>b'Line202'</title>
</g>
<g id="Arc128" transform="translate(-188.710975,396.312277) scale(1,-1)">
<path id="Arc128_nwe0000"  d="M 210.82967626269334 386.5901260021666 A 1.143 1.143 0 0 1 210.83 388.876" stroke="#000000" stroke-width="0.7 px" style="stroke-width:0.7;stroke-miterlimit:4;stroke-dasharray:none;stroke-linecap:square;fill:none;fill-opacity:1;fill-rule: evenodd"/>
<title>b'Arc128'</title>
</g>
<g id="Line201" transform="translate(-188.710975,396.312277) scale(1,-1)">
<path id="Line201_nwe0000"  d="M 205.495676262693 388.8761260021666 L 210.82967626269334 388.8761260021666 " stroke="#000000" stroke-width="0.7 px" style="stroke-width:0.7;stroke-miterlimit:4;stroke-dasharray:none;stroke-linecap:square;fill:none;fill-opacity:1;fill-rule: evenodd"/>
<title>b'Line201'</title>
</g>
<g id="Arc129" transform="translate(-188.710975,396.312277) scale(1,-1)">
<path id="Arc129_nwe0000"  d="M 205.495676262693 388.87612600216653 A 1.143 1.143 0 0 1 205.496 386.59" stroke="#000000" stroke-width="0.7 px" style="stroke-width:0.7;stroke-miterlimit:4;stroke-dasharray:none;stroke-linecap:square;fill:none;fill-opacity:1;fill-rule: evenodd"/>
<title>b'Arc129'</title>
</g>
<g id="Arc131" transform="translate(-188.710975,396.312277) scale(1,-1)">
<path id="Arc131_nwe0000"  d="M 200.96056261069592 394.77171333350617 A 6.35 6.35 0 0 1 203.787 394.054" stroke="#000000" stroke-width="0.7 px" style="stroke-width:0.7;stroke-miterlimit:4;stroke-dasharray:none;stroke-linecap:square;fill:none;fill-opacity:1;fill-rule: evenodd"/>
<title>b'Arc131'</title>
</g>
<g id="Arc133" transform="translate(-188.710975,396.312277) scale(1,-1)">
<path id="Arc133_nwe0000"  d="M 248.18650393809668 382.1713377554866 A 5.5626 5.5626 0 0 1 248.187 393.295" stroke="#000000" stroke-width="0.7 px" style="stroke-width:0.7;stroke-miterlimit:4;stroke-dasharray:none;stroke-linecap:square;fill:none;fill-opacity:1;fill-rule: evenodd"/>
<title>b'Arc133'</title>
</g>
<g id="Circle157" transform="translate(-188.710975,396.312277) scale(1,-1)">
<circle cx="248.09147626269257" cy="387.73312600216656" r="1.35" stroke="#000000" stroke-width="0.7 px" style="stroke-width:0.7;stroke-miterlimit:4;stroke-dasharray:none;stroke-linecap:square;fill:#000000"/>
<title>b'Circle157'</title>
</g>
</svg>