<?xml version="1.0"?>
<!DOCTYPE svg PUBLIC "-//W3C//DTD SVG 1.1//EN" "http://www.w3.org/Graphics/SVG/1.1/DTD/svg11.dtd">
<svg width="113.34375603928441mm" height="13.332711236499335mm" viewBox="0 0 113.34375603928441 13.332711236499335" xmlns="http://www.w3.org/2000/svg" version="1.1">
<g id="Line184" transform="translate(-34.255730,220.093506) scale(1,-1)">
<path id="Line184_nwe0000"  d="M 64.6409108353033 209.4583998924445 L 142.52102973379965 209.4583998924446 " stroke="#000000" stroke-width="0.7 px" style="stroke-width:0.7;stroke-miterlimit:4;stroke-dasharray:none;stroke-linecap:square;fill:none;fill-opacity:1;fill-rule: evenodd"/>
<title>b'Line184'</title>
</g>
<g id="Line187" transform="translate(-34.255730,220.093506) scale(1,-1)">
<path id="Line187_nwe0000"  d="M 142.52102973379965 217.39589989244456 L 64.6409108353033 217.39589989244456 " stroke="#000000" stroke-width="0.7 px" style="stroke-width:0.7;stroke-miterlimit:4;stroke-dasharray:none;stroke-linecap:square;fill:none;fill-opacity:1;fill-rule: evenodd"/>
<title>b'Line187'</title>
</g>
<g id="Arc103" transform="translate(-34.255730,220.093506) scale(1,-1)">
<path id="Arc103_nwe0000"  d="M 142.52102973379965 209.45839989244456 A 3.96875 3.96875 0 0 1 142.521 217.396" stroke="#000000" stroke-width="0.7 px" style="stroke-width:0.7;stroke-miterlimit:4;stroke-dasharray:none;stroke-linecap:square;fill:none;fill-opacity:1;fill-rule: evenodd"/>
<title>b'Arc103'</title>
</g>
<g id="Arc095" transform="translate(-34.255730,220.093506) scale(1,-1)">
<path id="Arc095_nwe0000"  d="M 55.92908521976455 208.61173322577787 A 6.35 6.35 0 0 1 52.7611 209.458" stroke="#000000" stroke-width="0.7 px" style="stroke-width:0.7;stroke-miterlimit:4;stroke-dasharray:none;stroke-linecap:square;fill:none;fill-opacity:1;fill-rule: evenodd"/>
<title>b'Arc095'</title>
</g>
<g id="Arc098" transform="translate(-34.255730,220.093506) scale(1,-1)">
<path id="Arc098_nwe0000"  d="M 46.86091083530323 209.45839989244453 A 6.35 6.35 0 0 1 43.693 208.612" stroke="#000000" stroke-width="0.7 px" style="stroke-width:0.7;stroke-miterlimit:4;stroke-dasharray:none;stroke-linecap:square;fill:none;fill-opacity:1;fill-rule: evenodd"/>
<title>b'Arc098'</title>
</g>
<g id="Arc099" transform="translate(-34.255730,220.093506) scale(1,-1)">
<path id="Arc099_nwe0000"  d="M 43.692974247834634 218.24256655911117 A 6.35 6.35 0 0 1 46.8609 217.396" stroke="#000000" stroke-width="0.7 px" style="stroke-width:0.7;stroke-miterlimit:4;stroke-dasharray:none;stroke-linecap:square;fill:none;fill-opacity:1;fill-rule: evenodd"/>
<title>b'Arc099'</title>
</g>
<g id="Arc096" transform="translate(-34.255730,220.093506) scale(1,-1)">
<path id="Arc096_nwe0000"  d="M 52.761148632295956 217.3958998924445 A 6.35 6.35 0 0 1 55.9291 218.243" stroke="#000000" stroke-width="0.7 px" style="stroke-width:0.7;stroke-miterlimit:4;stroke-dasharray:none;stroke-linecap:square;fill:none;fill-opacity:1;fill-rule: evenodd"/>
<title>b'Arc096'</title>
</g>
<g id="Arc094" transform="translate(-34.255730,220.093506) scale(1,-1)">
<path id="Arc094_nwe0000"  d="M 64.6409108353033 209.45839989244453 A 6.35 6.35 0 0 1 61.473 208.612" stroke="#000000" stroke-width="0.7 px" style="stroke-width:0.7;stroke-miterlimit:4;stroke-dasharray:none;stroke-linecap:square;fill:none;fill-opacity:1;fill-rule: evenodd"/>
<title>b'Arc094'</title>
</g>
<g id="Arc097" transform="translate(-34.255730,220.093506) scale(1,-1)">
<path id="Arc097_nwe0000"  d="M 61.472974247834706 218.24256655911117 A 6.35 6.35 0 0 1 64.6409 217.396" stroke="#000000" stroke-width="0.7 px" style="stroke-width:0.7;stroke-miterlimit:4;stroke-dasharray:none;stroke-linecap:square;fill:none;fill-opacity:1;fill-rule: evenodd"/>
<title>b'Arc097'</title>
</g>
<g id="Circle187" transform="translate(-34.255730,220.093506) scale(1,-1)">
<circle cx="40.92102973379966" cy="213.42714989244456" r="1.35" stroke="#000000" stroke-width="0.7 px" style="stroke-width:0.7;stroke-miterlimit:4;stroke-dasharray:none;stroke-linecap:square;fill:#000000"/>
<title>b'Circle187'</title>
</g>
<g id="Arc102" transform="translate(-34.255730,220.093506) scale(1,-1)">
<path id="Arc102_nwe0000"  d="M 43.692974247834684 218.24256655911122 A 5.55625 5.55625 0 1 1 43.693 208.612" stroke="#000000" stroke-width="0.7 px" style="stroke-width:0.7;stroke-miterlimit:4;stroke-dasharray:none;stroke-linecap:square;fill:none;fill-opacity:1;fill-rule: evenodd"/>
<title>b'Arc102'</title>
</g>
<g id="Circle188" transform="translate(-34.255730,220.093506) scale(1,-1)">
<circle cx="58.70102973379962" cy="213.42714989244456" r="1.35" stroke="#000000" stroke-width="0.7 px" style="stroke-width:0.7;stroke-miterlimit:4;stroke-dasharray:none;stroke-linecap:square;fill:#000000"/>
<title>b'Circle188'</title>
</g>
<g id="Arc100" transform="translate(-34.255730,220.093506) scale(1,-1)">
<path id="Arc100_nwe0000"  d="M 55.92908521976459 208.6117332257779 A 5.55625 5.55625 0 0 1 61.473 208.612" stroke="#000000" stroke-width="0.7 px" style="stroke-width:0.7;stroke-miterlimit:4;stroke-dasharray:none;stroke-linecap:square;fill:none;fill-opacity:1;fill-rule: evenodd"/>
<title>b'Arc100'</title>
</g>
<g id="Arc101" transform="translate(-34.255730,220.093506) scale(1,-1)">
<path id="Arc101_nwe0000"  d="M 61.47297424783465 218.24256655911122 A 5.55625 5.55625 0 0 1 55.9291 218.243" stroke="#000000" stroke-width="0.7 px" style="stroke-width:0.7;stroke-miterlimit:4;stroke-dasharray:none;stroke-linecap:square;fill:none;fill-opacity:1;fill-rule: evenodd"/>
<title>b'Arc101'</title>
</g>
<g id="Line186" transform="translate(-34.255730,220.093506) scale(1,-1)">
<path id="Line186_nwe0000"  d="M 46.86091083530323 209.4583998924445 L 52.761148632295956 209.4583998924445 " stroke="#000000" stroke-width="0.7 px" style="stroke-width:0.7;stroke-miterlimit:4;stroke-dasharray:none;stroke-linecap:square;fill:none;fill-opacity:1;fill-rule: evenodd"/>
<title>b'Line186'</title>
</g>
<g id="Line185" transform="translate(-34.255730,220.093506) scale(1,-1)">
<path id="Line185_nwe0000"  d="M 52.761148632295956 217.39589989244456 L 46.86091083530323 217.39589989244456 " stroke="#000000" stroke-width="0.7 px" style="stroke-width:0.7;stroke-miterlimit:4;stroke-dasharray:none;stroke-linecap:square;fill:none;fill-opacity:1;fill-rule: evenodd"/>
<title>b'Line185'</title>
</g>
</svg>