<?xml version="1.0"?>
<!DOCTYPE svg PUBLIC "-//W3C//DTD SVG 1.1//EN" "http://www.w3.org/Graphics/SVG/1.1/DTD/svg11.dtd">
<svg width="63.15928121606413mm" height="12.36124043819359mm" viewBox="0 0 63.15928121606413 12.36124043819359" xmlns="http://www.w3.org/2000/svg" version="1.1">
<g id="Line314" transform="translate(-71.012346,278.521546) scale(1,-1)">
<path id="Line314_nwe0000"  d="M 122.03938759126048 268.37217600216655 L 83.14458598481944 268.37217600216655 " stroke="#000000" stroke-width="0.7 px" style="stroke-width:0.7;stroke-miterlimit:4;stroke-dasharray:none;stroke-linecap:square;fill:none;fill-opacity:1;fill-rule: evenodd"/>
<title>b'Line314'</title>
</g>
<g id="Arc186" transform="translate(-71.012346,278.521546) scale(1,-1)">
<path id="Arc186_nwe0000"  d="M 79.97155869442531 277.15927621538617 A 5.5626 5.5626 0 1 1 79.9716 267.523" stroke="#000000" stroke-width="0.7 px" style="stroke-width:0.7;stroke-miterlimit:4;stroke-dasharray:none;stroke-linecap:square;fill:none;fill-opacity:1;fill-rule: evenodd"/>
<title>b'Arc186'</title>
</g>
<g id="Circle120" transform="translate(-71.012346,278.521546) scale(1,-1)">
<circle cx="77.19198678804001" cy="272.34092600216655" r="1.45" stroke="#000000" stroke-width="0.7 px" style="stroke-width:0.7;stroke-miterlimit:4;stroke-dasharray:none;stroke-linecap:square;fill:#000000"/>
<title>b'Circle120'</title>
</g>
<g id="Arc183" transform="translate(-71.012346,278.521546) scale(1,-1)">
<path id="Arc183_nwe0000"  d="M 79.97155869442527 277.15927621538617 A 6.35 6.35 0 0 1 83.1446 276.31" stroke="#000000" stroke-width="0.7 px" style="stroke-width:0.7;stroke-miterlimit:4;stroke-dasharray:none;stroke-linecap:square;fill:none;fill-opacity:1;fill-rule: evenodd"/>
<title>b'Arc183'</title>
</g>
<g id="Line315" transform="translate(-71.012346,278.521546) scale(1,-1)">
<path id="Line315_nwe0000"  d="M 83.14458598481944 276.30967600216655 L 122.03938759126048 276.30967600216655 " stroke="#000000" stroke-width="0.7 px" style="stroke-width:0.7;stroke-miterlimit:4;stroke-dasharray:none;stroke-linecap:square;fill:none;fill-opacity:1;fill-rule: evenodd"/>
<title>b'Line315'</title>
</g>
<g id="Arc182" transform="translate(-71.012346,278.521546) scale(1,-1)">
<path id="Arc182_nwe0000"  d="M 83.14458598481944 268.3721760021666 A 6.35 6.35 0 0 1 79.9716 267.523" stroke="#000000" stroke-width="0.7 px" style="stroke-width:0.7;stroke-miterlimit:4;stroke-dasharray:none;stroke-linecap:square;fill:none;fill-opacity:1;fill-rule: evenodd"/>
<title>b'Arc182'</title>
</g>
<g id="Arc187" transform="translate(-71.012346,278.521546) scale(1,-1)">
<path id="Arc187_nwe0000"  d="M 125.21241488165468 267.52257578894694 A 5.5626 5.5626 0 1 1 125.212 277.159" stroke="#000000" stroke-width="0.7 px" style="stroke-width:0.7;stroke-miterlimit:4;stroke-dasharray:none;stroke-linecap:square;fill:none;fill-opacity:1;fill-rule: evenodd"/>
<title>b'Arc187'</title>
</g>
<g id="Arc185" transform="translate(-71.012346,278.521546) scale(1,-1)">
<path id="Arc185_nwe0000"  d="M 125.21241488165467 267.522575788947 A 6.35 6.35 0 0 1 122.039 268.372" stroke="#000000" stroke-width="0.7 px" style="stroke-width:0.7;stroke-miterlimit:4;stroke-dasharray:none;stroke-linecap:square;fill:none;fill-opacity:1;fill-rule: evenodd"/>
<title>b'Arc185'</title>
</g>
<g id="Circle119" transform="translate(-71.012346,278.521546) scale(1,-1)">
<circle cx="127.99198678804" cy="272.34092600216655" r="1.35" stroke="#000000" stroke-width="0.7 px" style="stroke-width:0.7;stroke-miterlimit:4;stroke-dasharray:none;stroke-linecap:square;fill:#000000"/>
<title>b'Circle119'</title>
</g>
<g id="Arc184" transform="translate(-71.012346,278.521546) scale(1,-1)">
<path id="Arc184_nwe0000"  d="M 122.03938759126048 276.30967600216655 A 6.35 6.35 0 0 1 125.212 277.159" stroke="#000000" stroke-width="0.7 px" style="stroke-width:0.7;stroke-miterlimit:4;stroke-dasharray:none;stroke-linecap:square;fill:none;fill-opacity:1;fill-rule: evenodd"/>
<title>b'Arc184'</title>
</g>
</svg>